<svg 
          width="18.66666603088379" 
          height="23.33333396911621" fill="none" 
          xmlns="http://www.w3.org/2000/svg">
          <path d="M 0 19.833333873748778 L 0 17.500000476837158 L 2.3333332538604736 17.500000476837158 L 2.3333332538604736 9.333333031336451 C 2.3333332538604736 7.719444246821922 2.8194441629780727 6.290277652475561 3.7916665375232697 5.045833248297368 C 4.763888912068467 3.781943583223529 6.027778499656222 2.9555544863806515 7.583334187666537 2.5666659577687367 L 7.583334187666537 1.7500000476837156 C 7.583334187666537 1.2638885524537726 7.74861221942632 0.8555547629462126 8.079167726635887 0.5249986791610354 C 8.42916738092896 0.17499955972034514 8.847222106324296 0 9.333333015441895 0 C 9.819444480869493 0 10.227778245343075 0.17499955972034514 10.55833430886264 0.5249986791610354 C 10.908333406845713 0.8555547629462126 11.08333295583725 1.2638885524537726 11.08333295583725 1.7500000476837156 L 11.08333295583725 2.5666659577687367 C 12.638889200157564 2.9555544863806515 13.902777675125321 3.781943583223529 14.87499949336052 5.045833248297368 C 15.847222424215715 6.290277652475561 16.33333500226331 7.719444246821922 16.33333500226331 9.333333031336451 L 16.33333500226331 17.500000476837158 L 18.66666603088379 17.500000476837158 L 18.66666603088379 19.833333873748778 L 0 19.833333873748778 Z M 9.333333015441895 23.33333396911621 C 8.691666704416264 23.33333396911621 8.1375007241964 23.10972195254429 7.670833962162305 22.662499727408065 C 7.223611903521714 22.195832936763733 6.999999761581421 21.64166720072428 6.999999761581421 21.000000572204588 L 11.666667381922366 21.000000572204588 C 11.666667381922366 21.64166720072428 11.43333316644032 22.195832936763733 10.966665848096227 22.662499727408065 C 10.519443789455636 23.10972195254429 9.974999882777524 23.33333396911621 9.333333015441895 23.33333396911621 Z M 4.666666507720947 17.500000476837158 L 13.999999523162842 17.500000476837158 L 13.999999523162842 9.333333031336451 C 13.999999523162842 8.049999217987033 13.543055390980498 6.9513881511158155 12.629167126615812 6.037499830722799 C 11.715277749631127 5.123610397709717 10.616666750113154 4.666665681203176 9.333333015441895 4.666665681203176 C 8.050000393390633 4.666665681203176 6.95138939387266 5.123610397709717 6.037500016887975 6.037499830722799 C 5.1236111962132895 6.9513881511158155 4.666666507720947 8.049999217987033 4.666666507720947 9.333333031336451 L 4.666666507720947 17.500000476837158 Z" fill="rgb(230.00000149011612,224.000001847744,233.00000131130219)"/>
        </svg>