<svg 
          width="15.55555534362793" 
          height="21.38888931274414" fill="none" 
          xmlns="http://www.w3.org/2000/svg">
          <path d="M 7.777777671813965 2.91666672446511 L 7.777777671813965 0 L 3.8888888359069824 3.88888896595348 L 7.777777671813965 7.77777793190696 L 7.777777671813965 4.86111120744185 C 10.995833127895992 4.86111120744185 13.611110925674438 7.476389092676568 13.611110925674438 10.69444465637207 C 13.611110925674438 11.67638911100349 13.36805462009378 12.609722673766544 12.930554637644036 13.416667117976182 L 14.35000002702077 14.836111627636537 C 15.10833332220713 13.640278252062174 15.55555534362793 12.220833626503897 15.55555534362793 10.69444465637207 C 15.55555534362793 6.397222274818804 12.074999909665848 2.91666672446511 7.777777671813965 2.91666672446511 Z M 7.777777671813965 16.52777810530229 C 4.559722215731938 16.52777810530229 1.9444444179534912 13.912500220067573 1.9444444179534912 10.69444465637207 C 1.9444444179534912 9.712500201740651 2.1874997963507994 8.779166638977596 2.624999778800543 7.972222194767958 L 1.2055553166071604 6.5527776851076025 C 0.44722202142079936 7.748611060681965 0 9.168055686240244 0 10.69444465637207 C 0 14.991667037925335 3.4805554339620812 18.47222258827903 7.777777671813965 18.47222258827903 L 7.777777671813965 21.38888931274414 L 11.666666507720947 17.50000034679066 L 7.777777671813965 13.61111138083718 L 7.777777671813965 16.52777810530229 Z" fill="rgb(230.00000149011612,224.000001847744,233.00000131130219)"/>
        </svg>